<?xml version="1.0" encoding="UTF-8" standalone="no"?>
<!-- Created with Inkscape (http://www.inkscape.org/) -->

<svg
   width="150.97681mm"
   height="82.781036mm"
   viewBox="0 0 150.97681 82.781036"
   version="1.1"
   id="svg5"
   inkscape:version="1.1 (c68e22c387, 2021-05-23)"
   sodipodi:docname="choice_basis.svg"
   xmlns:inkscape="http://www.inkscape.org/namespaces/inkscape"
   xmlns:sodipodi="http://sodipodi.sourceforge.net/DTD/sodipodi-0.dtd"
   xmlns="http://www.w3.org/2000/svg"
   xmlns:svg="http://www.w3.org/2000/svg">
  <sodipodi:namedview
     id="namedview7"
     pagecolor="#ffffff"
     bordercolor="#666666"
     borderopacity="1.0"
     inkscape:pageshadow="2"
     inkscape:pageopacity="0.0"
     inkscape:pagecheckerboard="0"
     inkscape:document-units="mm"
     showgrid="false"
     inkscape:zoom="1.4467452"
     inkscape:cx="277.51949"
     inkscape:cy="236.04709"
     inkscape:window-width="2400"
     inkscape:window-height="1271"
     inkscape:window-x="2391"
     inkscape:window-y="-9"
     inkscape:window-maximized="1"
     inkscape:current-layer="layer1" />
  <defs
     id="defs2" />
  <g
     inkscape:label="Layer 1"
     inkscape:groupmode="layer"
     id="layer1"
     transform="translate(-36.464897,-56.359791)">
    <g
       id="g1668"
       transform="translate(-1.767029,-0.365765)">
      <path
         sodipodi:type="star"
         style="fill:none;stroke:#000000;stroke-width:3.77953;stroke-linecap:round;stroke-linejoin:round;stroke-miterlimit:4;stroke-dasharray:none"
         id="path1011-9-9"
         inkscape:flatsided="true"
         sodipodi:sides="10"
         sodipodi:cx="170.03685"
         sodipodi:cy="387.76697"
         sodipodi:r1="96.13987"
         sodipodi:r2="77.778786"
         sodipodi:arg1="1.5707963"
         sodipodi:arg2="1.8849556"
         inkscape:rounded="0"
         inkscape:randomized="0"
         transform="matrix(0.17317008,0,0,0.17317008,111.93505,6.5517175)"
         inkscape:transform-center-y="1.5897936"
         d="m 170.03685,483.90684 -56.5096,-18.36108 -34.924849,-48.06994 -10e-7,-59.4177 34.92485,-48.06994 56.5096,-18.36108 56.5096,18.36108 34.92485,48.06993 0,59.41771 -34.92485,48.06993 z"
         inkscape:transform-center-x="1.1393117e-06" />
      <path
         sodipodi:type="star"
         style="fill:#b3b3b3;stroke:#000000;stroke-width:3.77953;stroke-linecap:round;stroke-linejoin:round;stroke-miterlimit:4;stroke-dasharray:none"
         id="path1011-6-2-3"
         inkscape:flatsided="true"
         sodipodi:sides="10"
         sodipodi:cx="170.03685"
         sodipodi:cy="387.76697"
         sodipodi:r1="96.13987"
         sodipodi:r2="77.778786"
         sodipodi:arg1="1.5707963"
         sodipodi:arg2="1.8849556"
         inkscape:rounded="0"
         inkscape:randomized="0"
         transform="matrix(0.17317008,0,0,0.17317008,143.60247,6.5517175)"
         inkscape:transform-center-y="1.5897942"
         d="m 170.03685,483.90684 -56.5096,-18.36108 -34.924849,-48.06994 -10e-7,-59.4177 34.92485,-48.06994 56.5096,-18.36108 56.5096,18.36108 34.92485,48.06993 0,59.41771 -34.92485,48.06993 z"
         inkscape:transform-center-x="1.3267032e-06" />
    </g>
    <g
       id="g1664"
       transform="translate(-0.852621,0.365765)">
      <path
         sodipodi:type="star"
         style="fill:#b3b3b3;stroke:#000000;stroke-width:3.77953;stroke-linecap:round;stroke-linejoin:round;stroke-miterlimit:4;stroke-dasharray:none"
         id="path1011-9-9-6"
         inkscape:flatsided="true"
         sodipodi:sides="10"
         sodipodi:cx="170.03685"
         sodipodi:cy="387.76697"
         sodipodi:r1="96.13987"
         sodipodi:r2="77.778786"
         sodipodi:arg1="1.5707963"
         sodipodi:arg2="1.8849556"
         inkscape:rounded="0"
         inkscape:randomized="0"
         transform="matrix(0.17317008,0,0,0.17317008,24.033185,5.8201875)"
         inkscape:transform-center-y="1.5897936"
         inkscape:transform-center-x="1.1393117e-06"
         d="m 170.03685,483.90684 -56.5096,-18.36108 -34.924849,-48.06994 -10e-7,-59.4177 34.92485,-48.06994 56.5096,-18.36108 56.5096,18.36108 34.92485,48.06993 0,59.41771 -34.92485,48.06993 z" />
      <path
         sodipodi:type="star"
         style="fill:#b3b3b3;stroke:#000000;stroke-width:3.77953;stroke-linecap:round;stroke-linejoin:round;stroke-miterlimit:4;stroke-dasharray:none"
         id="path1011-6-2-3-2"
         inkscape:flatsided="true"
         sodipodi:sides="10"
         sodipodi:cx="170.03685"
         sodipodi:cy="387.76697"
         sodipodi:r1="96.13987"
         sodipodi:r2="77.778786"
         sodipodi:arg1="1.5707963"
         sodipodi:arg2="1.8849556"
         inkscape:rounded="0"
         inkscape:randomized="0"
         transform="matrix(0.17317008,0,0,0.17317008,55.700605,5.8201875)"
         inkscape:transform-center-y="1.5897942"
         inkscape:transform-center-x="1.3267032e-06"
         d="m 170.03685,483.90684 -56.5096,-18.36108 -34.924849,-48.06994 -10e-7,-59.4177 34.92485,-48.06994 56.5096,-18.36108 56.5096,18.36108 34.92485,48.06993 0,59.41771 -34.92485,48.06993 z" />
    </g>
    <g
       id="g1672"
       transform="translate(-0.06178885,-0.365765)">
      <path
         sodipodi:type="star"
         style="fill:none;stroke:#000000;stroke-width:3.77953;stroke-linecap:round;stroke-linejoin:round;stroke-miterlimit:4;stroke-dasharray:none"
         id="path1011-9-9-9"
         inkscape:flatsided="true"
         sodipodi:sides="10"
         sodipodi:cx="170.03685"
         sodipodi:cy="387.76697"
         sodipodi:r1="96.13987"
         sodipodi:r2="77.778786"
         sodipodi:arg1="1.5707963"
         sodipodi:arg2="1.8849556"
         inkscape:rounded="0"
         inkscape:randomized="0"
         transform="matrix(0.17317008,0,0,0.17317008,110.22981,55.381158)"
         inkscape:transform-center-y="1.5897936"
         inkscape:transform-center-x="1.1393117e-06"
         d="m 170.03685,483.90684 -56.5096,-18.36108 -34.924849,-48.06994 -10e-7,-59.4177 34.92485,-48.06994 56.5096,-18.36108 56.5096,18.36108 34.92485,48.06993 0,59.41771 -34.92485,48.06993 z" />
      <path
         sodipodi:type="star"
         style="fill:#b3b3b3;stroke:#000000;stroke-width:3.77953;stroke-linecap:round;stroke-linejoin:round;stroke-miterlimit:4;stroke-dasharray:none"
         id="path1011-6-2-3-6"
         inkscape:flatsided="true"
         sodipodi:sides="10"
         sodipodi:cx="170.03685"
         sodipodi:cy="387.76697"
         sodipodi:r1="96.13987"
         sodipodi:r2="77.778786"
         sodipodi:arg1="1.5707963"
         sodipodi:arg2="1.8849556"
         inkscape:rounded="0"
         inkscape:randomized="0"
         transform="matrix(0.17317008,0,0,0.17317008,141.89723,55.381158)"
         inkscape:transform-center-y="1.5897942"
         inkscape:transform-center-x="1.3267032e-06"
         d="m 170.03685,483.90684 -56.5096,-18.36108 -34.924849,-48.06994 -10e-7,-59.4177 34.92485,-48.06994 56.5096,-18.36108 56.5096,18.36108 34.92485,48.06993 0,59.41771 -34.92485,48.06993 z" />
    </g>
    <g
       id="g1660"
       transform="translate(0.852621,0.365765)">
      <path
         sodipodi:type="star"
         style="fill:#b3b3b3;stroke:#000000;stroke-width:3.77953;stroke-linecap:round;stroke-linejoin:round;stroke-miterlimit:4;stroke-dasharray:none"
         id="path1011-9-9-6-6"
         inkscape:flatsided="true"
         sodipodi:sides="10"
         sodipodi:cx="170.03685"
         sodipodi:cy="387.76697"
         sodipodi:r1="96.13987"
         sodipodi:r2="77.778786"
         sodipodi:arg1="1.5707963"
         sodipodi:arg2="1.8849556"
         inkscape:rounded="0"
         inkscape:randomized="0"
         transform="matrix(0.17317008,0,0,0.17317008,22.327943,54.649628)"
         inkscape:transform-center-y="1.5897936"
         inkscape:transform-center-x="1.1393117e-06"
         d="m 170.03685,483.90684 -56.5096,-18.36108 -34.924849,-48.06994 -10e-7,-59.4177 34.92485,-48.06994 56.5096,-18.36108 56.5096,18.36108 34.92485,48.06993 0,59.41771 -34.92485,48.06993 z" />
      <path
         sodipodi:type="star"
         style="fill:#ffffff;stroke:#000000;stroke-width:3.77953;stroke-linecap:round;stroke-linejoin:round;stroke-miterlimit:4;stroke-dasharray:none"
         id="path1011-6-2-3-2-2"
         inkscape:flatsided="true"
         sodipodi:sides="10"
         sodipodi:cx="170.03685"
         sodipodi:cy="387.76697"
         sodipodi:r1="96.13987"
         sodipodi:r2="77.778786"
         sodipodi:arg1="1.5707963"
         sodipodi:arg2="1.8849556"
         inkscape:rounded="0"
         inkscape:randomized="0"
         transform="matrix(0.17317008,0,0,0.17317008,53.995363,54.649628)"
         inkscape:transform-center-y="1.5897942"
         inkscape:transform-center-x="1.3267032e-06"
         d="m 170.03685,483.90684 -56.5096,-18.36108 -34.924849,-48.06994 -10e-7,-59.4177 34.92485,-48.06994 56.5096,-18.36108 56.5096,18.36108 34.92485,48.06993 0,59.41771 -34.92485,48.06993 z" />
    </g>
  </g>
</svg>
