<svg height="700" width="900" xmlns="http://www.w3.org/2000/svg">
<g class="angles"  >
<line x1="184.532" y1="255.797" x2="184.52" y2="256.679" style="stroke: #202731; stroke-width: 1" />
<line x1="184.52" y1="256.679" x2="184.284" y2="273.32" style="stroke: #202731; stroke-width: 1" />
<line x1="184.284" y1="273.32" x2="182.878" y2="372.615" style="stroke: #202731; stroke-width: 1" />
<line x1="182.878" y1="372.615" x2="182.876" y2="372.748" style="stroke: #202731; stroke-width: 1" />
<line x1="182.876" y1="372.748" x2="182.871" y2="373.139" style="stroke: #202731; stroke-width: 1" />
<line x1="182.871" y1="373.139" x2="180.839" y2="516.676" style="stroke: #202731; stroke-width: 1" />
<line x1="180.839" y1="516.676" x2="180.705" y2="526.105" style="stroke: #202731; stroke-width: 1" />
<line x1="180.705" y1="526.105" x2="180.248" y2="558.403" style="stroke: #202731; stroke-width: 1" />
<line x1="180.248" y1="558.403" x2="178.951" y2="650" style="stroke: #202731; stroke-width: 1" />
<line x1="50" y1="371.256" x2="182.878" y2="372.615" style="stroke: #202731; stroke-width: 1" />
<line x1="182.878" y1="372.615" x2="183.401" y2="372.62" style="stroke: #202731; stroke-width: 1" />
<line x1="183.401" y1="372.62" x2="183.657" y2="372.623" style="stroke: #202731; stroke-width: 1" />
<line x1="183.657" y1="372.623" x2="210.833" y2="372.9" style="stroke: #202731; stroke-width: 1" />
<line x1="210.833" y1="372.9" x2="253.331" y2="373.335" style="stroke: #202731; stroke-width: 1" />
<line x1="253.331" y1="373.335" x2="255.262" y2="373.355" style="stroke: #202731; stroke-width: 1" />
<line x1="255.262" y1="373.355" x2="277.544" y2="373.583" style="stroke: #202731; stroke-width: 1" />
<line x1="277.544" y1="373.583" x2="282.799" y2="373.636" style="stroke: #202731; stroke-width: 1" />
<line x1="282.799" y1="373.636" x2="287.711" y2="373.687" style="stroke: #202731; stroke-width: 1" />
<line x1="287.711" y1="373.687" x2="299.776" y2="373.81" style="stroke: #202731; stroke-width: 1" />
<line x1="299.776" y1="373.81" x2="421.309" y2="375.053" style="stroke: #202731; stroke-width: 1" />
<line x1="421.309" y1="375.053" x2="441.141" y2="375.256" style="stroke: #202731; stroke-width: 1" />
<line x1="441.141" y1="375.256" x2="443.101" y2="375.276" style="stroke: #202731; stroke-width: 1" />
<line x1="443.101" y1="375.276" x2="459.86" y2="375.447" style="stroke: #202731; stroke-width: 1" />
<line x1="459.86" y1="375.447" x2="488.037" y2="375.735" style="stroke: #202731; stroke-width: 1" />
<line x1="488.037" y1="375.735" x2="514.547" y2="376.007" style="stroke: #202731; stroke-width: 1" />
<line x1="514.547" y1="376.007" x2="528.161" y2="376.146" style="stroke: #202731; stroke-width: 1" />
<line x1="528.161" y1="376.146" x2="624.633" y2="377.132" style="stroke: #202731; stroke-width: 1" />
<line x1="624.633" y1="377.132" x2="650" y2="377.392" style="stroke: #202731; stroke-width: 1" />
<line x1="187.966" y1="74.2723" x2="185.729" y2="229.196" style="stroke: #202731; stroke-width: 1" />
<line x1="185.729" y1="229.196" x2="185.333" y2="256.619" style="stroke: #202731; stroke-width: 1" />
<line x1="185.333" y1="256.619" x2="185.332" y2="256.689" style="stroke: #202731; stroke-width: 1" />
<line x1="185.332" y1="256.689" x2="185.08" y2="274.121" style="stroke: #202731; stroke-width: 1" />
<line x1="185.08" y1="274.121" x2="183.661" y2="372.365" style="stroke: #202731; stroke-width: 1" />
<line x1="183.661" y1="372.365" x2="183.657" y2="372.623" style="stroke: #202731; stroke-width: 1" />
<line x1="183.657" y1="372.623" x2="183.655" y2="372.752" style="stroke: #202731; stroke-width: 1" />
<line x1="183.655" y1="372.752" x2="181.441" y2="526.114" style="stroke: #202731; stroke-width: 1" />
<line x1="181.441" y1="526.114" x2="181.337" y2="533.27" style="stroke: #202731; stroke-width: 1" />
<line x1="181.337" y1="533.27" x2="180.974" y2="558.413" style="stroke: #202731; stroke-width: 1" />
<line x1="180.974" y1="558.413" x2="179.651" y2="650" style="stroke: #202731; stroke-width: 1" />
<line x1="180.705" y1="526.105" x2="181.122" y2="526.11" style="stroke: #202731; stroke-width: 1" />
<line x1="181.122" y1="526.11" x2="181.441" y2="526.114" style="stroke: #202731; stroke-width: 1" />
<line x1="181.441" y1="526.114" x2="253.839" y2="527.012" style="stroke: #202731; stroke-width: 1" />
<line x1="253.839" y1="527.012" x2="260.849" y2="527.099" style="stroke: #202731; stroke-width: 1" />
<line x1="260.849" y1="527.099" x2="325.321" y2="527.898" style="stroke: #202731; stroke-width: 1" />
<line x1="325.321" y1="527.898" x2="329.156" y2="527.945" style="stroke: #202731; stroke-width: 1" />
<line x1="329.156" y1="527.945" x2="344.797" y2="528.139" style="stroke: #202731; stroke-width: 1" />
<line x1="344.797" y1="528.139" x2="417.008" y2="529.034" style="stroke: #202731; stroke-width: 1" />
<line x1="417.008" y1="529.034" x2="432.659" y2="529.228" style="stroke: #202731; stroke-width: 1" />
<line x1="432.659" y1="529.228" x2="438.623" y2="529.302" style="stroke: #202731; stroke-width: 1" />
<line x1="438.623" y1="529.302" x2="440.751" y2="529.328" style="stroke: #202731; stroke-width: 1" />
<line x1="440.751" y1="529.328" x2="484.97" y2="529.876" style="stroke: #202731; stroke-width: 1" />
<line x1="484.97" y1="529.876" x2="512.504" y2="530.218" style="stroke: #202731; stroke-width: 1" />
<line x1="512.504" y1="530.218" x2="513.512" y2="530.23" style="stroke: #202731; stroke-width: 1" />
<line x1="255.525" y1="344.976" x2="255.264" y2="373.143" style="stroke: #202731; stroke-width: 1" />
<line x1="255.264" y1="373.143" x2="255.262" y2="373.355" style="stroke: #202731; stroke-width: 1" />
<line x1="255.262" y1="373.355" x2="255.251" y2="374.592" style="stroke: #202731; stroke-width: 1" />
<line x1="255.251" y1="374.592" x2="255.102" y2="390.665" style="stroke: #202731; stroke-width: 1" />
<line x1="255.102" y1="390.665" x2="254.023" y2="507.129" style="stroke: #202731; stroke-width: 1" />
<line x1="254.023" y1="507.129" x2="253.86" y2="524.767" style="stroke: #202731; stroke-width: 1" />
<line x1="253.86" y1="524.767" x2="253.839" y2="527.012" style="stroke: #202731; stroke-width: 1" />
<line x1="253.839" y1="527.012" x2="253.539" y2="559.45" style="stroke: #202731; stroke-width: 1" />
<line x1="438.093" y1="561.702" x2="438.623" y2="529.302" style="stroke: #202731; stroke-width: 1" />
<line x1="438.623" y1="529.302" x2="438.647" y2="527.848" style="stroke: #202731; stroke-width: 1" />
<line x1="438.647" y1="527.848" x2="438.897" y2="512.535" style="stroke: #202731; stroke-width: 1" />
<line x1="438.897" y1="512.535" x2="441.118" y2="376.608" style="stroke: #202731; stroke-width: 1" />
<line x1="441.118" y1="376.608" x2="441.141" y2="375.256" style="stroke: #202731; stroke-width: 1" />
<line x1="441.141" y1="375.256" x2="441.305" y2="365.198" style="stroke: #202731; stroke-width: 1" />
<line x1="506.588" y1="314.265" x2="489.263" y2="314.113" style="stroke: #202731; stroke-width: 1" />
<line x1="489.263" y1="314.113" x2="415.154" y2="313.463" style="stroke: #202731; stroke-width: 1" />
<line x1="415.154" y1="313.463" x2="346.554" y2="312.86" style="stroke: #202731; stroke-width: 1" />
<line x1="346.554" y1="312.86" x2="300.42" y2="312.455" style="stroke: #202731; stroke-width: 1" />
<line x1="300.42" y1="312.455" x2="289.13" y2="312.356" style="stroke: #202731; stroke-width: 1" />
<line x1="302.919" y1="74.2723" x2="301.279" y2="230.639" style="stroke: #202731; stroke-width: 1" />
<line x1="301.279" y1="230.639" x2="301.156" y2="242.273" style="stroke: #202731; stroke-width: 1" />
<line x1="301.156" y1="242.273" x2="300.99" y2="258.175" style="stroke: #202731; stroke-width: 1" />
<line x1="300.99" y1="258.175" x2="300.798" y2="276.448" style="stroke: #202731; stroke-width: 1" />
<line x1="300.798" y1="276.448" x2="300.42" y2="312.455" style="stroke: #202731; stroke-width: 1" />
<line x1="300.42" y1="312.455" x2="299.776" y2="373.81" style="stroke: #202731; stroke-width: 1" />
<line x1="506.549" y1="373.055" x2="506.588" y2="314.265" style="stroke: #202731; stroke-width: 1" />
<line x1="506.588" y1="314.265" x2="506.627" y2="254.17" style="stroke: #202731; stroke-width: 1" />
<line x1="506.627" y1="254.17" x2="506.641" y2="233.204" style="stroke: #202731; stroke-width: 1" />
<line x1="506.641" y1="233.204" x2="506.747" y2="74.2723" style="stroke: #202731; stroke-width: 1" />
<line x1="506.641" y1="233.204" x2="486.262" y2="232.949" style="stroke: #202731; stroke-width: 1" />
<line x1="486.262" y1="232.949" x2="301.279" y2="230.639" style="stroke: #202731; stroke-width: 1" />
<line x1="301.279" y1="230.639" x2="284.554" y2="230.43" style="stroke: #202731; stroke-width: 1" />
<line x1="284.554" y1="230.43" x2="185.729" y2="229.196" style="stroke: #202731; stroke-width: 1" />
<line x1="512.075" y1="562.626" x2="512.079" y2="562.366" style="stroke: #202731; stroke-width: 1" />
<line x1="512.079" y1="562.366" x2="512.341" y2="542.545" style="stroke: #202731; stroke-width: 1" />
<line x1="512.341" y1="542.545" x2="512.504" y2="530.218" style="stroke: #202731; stroke-width: 1" />
<line x1="512.504" y1="530.218" x2="514.547" y2="376.007" style="stroke: #202731; stroke-width: 1" />
<line x1="514.547" y1="376.007" x2="514.59" y2="372.812" style="stroke: #202731; stroke-width: 1" />
<line x1="514.59" y1="372.812" x2="516.031" y2="263.969" style="stroke: #202731; stroke-width: 1" />
<line x1="489.336" y1="310.436" x2="415.154" y2="313.463" style="stroke: #202731; stroke-width: 1" />
<line x1="287.963" y1="444.376" x2="287.963" y2="444.376" style="stroke: #202731; stroke-width: 1" />
<line x1="287.963" y1="444.376" x2="300.263" y2="443.378" style="stroke: #202731; stroke-width: 1" />
<line x1="300.263" y1="443.378" x2="300.263" y2="443.378" style="stroke: #202731; stroke-width: 1" />
<line x1="300.263" y1="443.378" x2="396.037" y2="435.604" style="stroke: #202731; stroke-width: 1" />
<line x1="396.037" y1="435.604" x2="396.037" y2="435.604" style="stroke: #202731; stroke-width: 1" />
<line x1="396.037" y1="435.604" x2="411.032" y2="434.387" style="stroke: #202731; stroke-width: 1" />
<line x1="411.032" y1="434.387" x2="411.033" y2="434.387" style="stroke: #202731; stroke-width: 1" />
<line x1="50" y1="372.021" x2="182.876" y2="372.748" style="stroke: #202731; stroke-width: 1" />
<line x1="182.876" y1="372.748" x2="183.268" y2="372.75" style="stroke: #202731; stroke-width: 1" />
<line x1="183.268" y1="372.75" x2="183.655" y2="372.752" style="stroke: #202731; stroke-width: 1" />
<line x1="183.655" y1="372.752" x2="210.833" y2="372.9" style="stroke: #202731; stroke-width: 1" />
<line x1="210.833" y1="372.9" x2="253.019" y2="373.131" style="stroke: #202731; stroke-width: 1" />
<line x1="253.019" y1="373.131" x2="255.264" y2="373.143" style="stroke: #202731; stroke-width: 1" />
<line x1="254.023" y1="507.129" x2="279.546" y2="507.876" style="stroke: #202731; stroke-width: 1" />
<line x1="279.546" y1="507.876" x2="281.405" y2="507.93" style="stroke: #202731; stroke-width: 1" />
<line x1="281.405" y1="507.93" x2="281.406" y2="507.93" style="stroke: #202731; stroke-width: 1" />
<line x1="281.406" y1="507.93" x2="284.66" y2="508.025" style="stroke: #202731; stroke-width: 1" />
<line x1="284.66" y1="508.025" x2="308.497" y2="508.722" style="stroke: #202731; stroke-width: 1" />
<line x1="308.497" y1="508.722" x2="331.12" y2="509.384" style="stroke: #202731; stroke-width: 1" />
<line x1="331.12" y1="509.384" x2="349.408" y2="509.919" style="stroke: #202731; stroke-width: 1" />
<line x1="349.408" y1="509.919" x2="354.592" y2="510.07" style="stroke: #202731; stroke-width: 1" />
<line x1="354.592" y1="510.07" x2="415.924" y2="511.864" style="stroke: #202731; stroke-width: 1" />
<line x1="415.924" y1="511.864" x2="415.925" y2="511.864" style="stroke: #202731; stroke-width: 1" />
<line x1="415.925" y1="511.864" x2="434.057" y2="512.394" style="stroke: #202731; stroke-width: 1" />
<line x1="434.057" y1="512.394" x2="438.897" y2="512.535" style="stroke: #202731; stroke-width: 1" />
<line x1="292.638" y1="399.067" x2="290.271" y2="422.005" style="stroke: #202731; stroke-width: 1" />
<line x1="290.271" y1="422.005" x2="287.963" y2="444.376" style="stroke: #202731; stroke-width: 1" />
<line x1="287.963" y1="444.376" x2="287.963" y2="444.376" style="stroke: #202731; stroke-width: 1" />
<line x1="287.963" y1="444.376" x2="281.406" y2="507.93" style="stroke: #202731; stroke-width: 1" />
<line x1="281.406" y1="507.93" x2="281.406" y2="507.93" style="stroke: #202731; stroke-width: 1" />
<line x1="417.008" y1="529.034" x2="415.924" y2="511.864" style="stroke: #202731; stroke-width: 1" />
<line x1="415.924" y1="511.864" x2="415.924" y2="511.863" style="stroke: #202731; stroke-width: 1" />
<line x1="415.924" y1="511.863" x2="414.658" y2="491.818" style="stroke: #202731; stroke-width: 1" />
<line x1="414.658" y1="491.818" x2="414.658" y2="491.811" style="stroke: #202731; stroke-width: 1" />
<line x1="414.658" y1="491.811" x2="411.033" y2="434.39" style="stroke: #202731; stroke-width: 1" />
<line x1="411.033" y1="434.39" x2="411.032" y2="434.387" style="stroke: #202731; stroke-width: 1" />
<line x1="411.032" y1="434.387" x2="409.574" y2="411.283" style="stroke: #202731; stroke-width: 1" />
<line x1="409.574" y1="411.283" x2="408.758" y2="398.357" style="stroke: #202731; stroke-width: 1" />
<line x1="277.544" y1="373.583" x2="280.086" y2="390.849" style="stroke: #202731; stroke-width: 1" />
<line x1="280.086" y1="390.849" x2="280.086" y2="390.851" style="stroke: #202731; stroke-width: 1" />
<line x1="280.086" y1="390.851" x2="282.098" y2="404.525" style="stroke: #202731; stroke-width: 1" />
<line x1="282.098" y1="404.525" x2="287.963" y2="444.376" style="stroke: #202731; stroke-width: 1" />
<line x1="287.963" y1="444.376" x2="287.963" y2="444.376" style="stroke: #202731; stroke-width: 1" />
<line x1="405.747" y1="464.912" x2="411.033" y2="434.39" style="stroke: #202731; stroke-width: 1" />
<line x1="411.033" y1="434.39" x2="411.033" y2="434.387" style="stroke: #202731; stroke-width: 1" />
<line x1="411.033" y1="434.387" x2="417.501" y2="397.04" style="stroke: #202731; stroke-width: 1" />
<line x1="417.501" y1="397.04" x2="418.395" y2="391.881" style="stroke: #202731; stroke-width: 1" />
<line x1="418.395" y1="391.881" x2="418.395" y2="391.88" style="stroke: #202731; stroke-width: 1" />
<line x1="418.395" y1="391.88" x2="421.309" y2="375.053" style="stroke: #202731; stroke-width: 1" />
<line x1="255.102" y1="390.665" x2="280.086" y2="390.851" style="stroke: #202731; stroke-width: 1" />
<line x1="280.086" y1="390.851" x2="280.087" y2="390.851" style="stroke: #202731; stroke-width: 1" />
<line x1="280.087" y1="390.851" x2="312.881" y2="391.095" style="stroke: #202731; stroke-width: 1" />
<line x1="312.881" y1="391.095" x2="381.46" y2="391.606" style="stroke: #202731; stroke-width: 1" />
<line x1="381.46" y1="391.606" x2="418.394" y2="391.881" style="stroke: #202731; stroke-width: 1" />
<line x1="418.394" y1="391.881" x2="418.395" y2="391.881" style="stroke: #202731; stroke-width: 1" />
<line x1="418.395" y1="391.881" x2="434.132" y2="391.998" style="stroke: #202731; stroke-width: 1" />
<line x1="414.659" y1="491.813" x2="414.658" y2="491.811" style="stroke: #202731; stroke-width: 1" />
<line x1="414.658" y1="491.811" x2="405.747" y2="464.912" style="stroke: #202731; stroke-width: 1" />
<line x1="405.747" y1="464.912" x2="396.037" y2="435.605" style="stroke: #202731; stroke-width: 1" />
<line x1="396.037" y1="435.605" x2="396.037" y2="435.604" style="stroke: #202731; stroke-width: 1" />
<line x1="396.037" y1="435.604" x2="388.261" y2="412.132" style="stroke: #202731; stroke-width: 1" />
<line x1="388.261" y1="412.132" x2="381.46" y2="391.606" style="stroke: #202731; stroke-width: 1" />
<line x1="312.881" y1="391.095" x2="308.458" y2="409.423" style="stroke: #202731; stroke-width: 1" />
<line x1="308.458" y1="409.423" x2="300.263" y2="443.378" style="stroke: #202731; stroke-width: 1" />
<line x1="300.263" y1="443.378" x2="300.263" y2="443.378" style="stroke: #202731; stroke-width: 1" />
<line x1="300.263" y1="443.378" x2="284.66" y2="508.025" style="stroke: #202731; stroke-width: 1" />
<line x1="354.592" y1="510.07" x2="371.131" y2="480.353" style="stroke: #202731; stroke-width: 1" />
<line x1="371.131" y1="480.353" x2="396.037" y2="435.605" style="stroke: #202731; stroke-width: 1" />
<line x1="396.037" y1="435.605" x2="396.037" y2="435.604" style="stroke: #202731; stroke-width: 1" />
<line x1="396.037" y1="435.604" x2="409.574" y2="411.283" style="stroke: #202731; stroke-width: 1" />
<line x1="290.271" y1="422.005" x2="300.263" y2="443.378" style="stroke: #202731; stroke-width: 1" />
<line x1="300.263" y1="443.378" x2="300.263" y2="443.378" style="stroke: #202731; stroke-width: 1" />
<line x1="300.263" y1="443.378" x2="331.12" y2="509.384" style="stroke: #202731; stroke-width: 1" />
<line x1="176.708" y1="379.176" x2="180.839" y2="516.676" style="stroke: #202731; stroke-width: 1" />
<line x1="180.839" y1="516.676" x2="181.122" y2="526.11" style="stroke: #202731; stroke-width: 1" />
<line x1="181.122" y1="526.11" x2="181.337" y2="533.27" style="stroke: #202731; stroke-width: 1" />
<line x1="290.386" y1="258.039" x2="289.943" y2="277.208" style="stroke: #202731; stroke-width: 1" />
<line x1="289.943" y1="277.208" x2="289.13" y2="312.356" style="stroke: #202731; stroke-width: 1" />
<line x1="289.13" y1="312.356" x2="287.711" y2="373.687" style="stroke: #202731; stroke-width: 1" />
<line x1="253.86" y1="524.767" x2="260.801" y2="520.525" style="stroke: #202731; stroke-width: 1" />
<line x1="260.801" y1="520.525" x2="281.405" y2="507.93" style="stroke: #202731; stroke-width: 1" />
<line x1="281.405" y1="507.93" x2="281.406" y2="507.93" style="stroke: #202731; stroke-width: 1" />
<line x1="371.131" y1="480.353" x2="415.924" y2="511.863" style="stroke: #202731; stroke-width: 1" />
<line x1="415.924" y1="511.863" x2="415.925" y2="511.864" style="stroke: #202731; stroke-width: 1" />
<line x1="415.925" y1="511.864" x2="432.84" y2="523.763" style="stroke: #202731; stroke-width: 1" />
<line x1="432.84" y1="523.763" x2="438.647" y2="527.848" style="stroke: #202731; stroke-width: 1" />
<line x1="438.647" y1="527.848" x2="440.751" y2="529.328" style="stroke: #202731; stroke-width: 1" />
<line x1="210.976" y1="345.608" x2="233.434" y2="360.31" style="stroke: #202731; stroke-width: 1" />
<line x1="233.434" y1="360.31" x2="253.019" y2="373.131" style="stroke: #202731; stroke-width: 1" />
<line x1="253.019" y1="373.131" x2="253.331" y2="373.335" style="stroke: #202731; stroke-width: 1" />
<line x1="253.331" y1="373.335" x2="255.251" y2="374.592" style="stroke: #202731; stroke-width: 1" />
<line x1="255.251" y1="374.592" x2="280.086" y2="390.849" style="stroke: #202731; stroke-width: 1" />
<line x1="280.086" y1="390.849" x2="280.087" y2="390.851" style="stroke: #202731; stroke-width: 1" />
<line x1="280.087" y1="390.851" x2="292.638" y2="399.067" style="stroke: #202731; stroke-width: 1" />
<line x1="292.638" y1="399.067" x2="308.458" y2="409.423" style="stroke: #202731; stroke-width: 1" />
<line x1="284.554" y1="230.43" x2="284.217" y2="257.96" style="stroke: #202731; stroke-width: 1" />
<line x1="284.217" y1="257.96" x2="284.21" y2="258.526" style="stroke: #202731; stroke-width: 1" />
<line x1="284.21" y1="258.526" x2="283.976" y2="277.626" style="stroke: #202731; stroke-width: 1" />
<line x1="283.976" y1="277.626" x2="282.814" y2="372.424" style="stroke: #202731; stroke-width: 1" />
<line x1="282.814" y1="372.424" x2="282.799" y2="373.636" style="stroke: #202731; stroke-width: 1" />
<line x1="282.098" y1="404.525" x2="279.546" y2="507.876" style="stroke: #202731; stroke-width: 1" />
<line x1="329.156" y1="527.945" x2="329.981" y2="527.211" style="stroke: #202731; stroke-width: 1" />
<line x1="329.981" y1="527.211" x2="349.408" y2="509.919" style="stroke: #202731; stroke-width: 1" />
<line x1="458.172" y1="374.515" x2="488.079" y2="373.612" style="stroke: #202731; stroke-width: 1" />
<line x1="488.079" y1="373.612" x2="506.549" y2="373.055" style="stroke: #202731; stroke-width: 1" />
<line x1="506.549" y1="373.055" x2="514.59" y2="372.812" style="stroke: #202731; stroke-width: 1" />
<line x1="388.261" y1="412.132" x2="408.758" y2="398.357" style="stroke: #202731; stroke-width: 1" />
<line x1="408.758" y1="398.357" x2="418.394" y2="391.881" style="stroke: #202731; stroke-width: 1" />
<line x1="418.394" y1="391.881" x2="418.395" y2="391.88" style="stroke: #202731; stroke-width: 1" />
<line x1="418.395" y1="391.88" x2="434.139" y2="381.299" style="stroke: #202731; stroke-width: 1" />
<line x1="434.139" y1="381.299" x2="441.118" y2="376.608" style="stroke: #202731; stroke-width: 1" />
<line x1="441.118" y1="376.608" x2="443.101" y2="375.276" style="stroke: #202731; stroke-width: 1" />
<line x1="300.99" y1="258.175" x2="290.386" y2="258.039" style="stroke: #202731; stroke-width: 1" />
<line x1="290.386" y1="258.039" x2="284.793" y2="257.967" style="stroke: #202731; stroke-width: 1" />
<line x1="284.793" y1="257.967" x2="284.217" y2="257.96" style="stroke: #202731; stroke-width: 1" />
<line x1="284.217" y1="257.96" x2="234.625" y2="257.323" style="stroke: #202731; stroke-width: 1" />
<line x1="234.625" y1="257.323" x2="185.402" y2="256.69" style="stroke: #202731; stroke-width: 1" />
<line x1="185.402" y1="256.69" x2="185.332" y2="256.689" style="stroke: #202731; stroke-width: 1" />
<line x1="185.332" y1="256.689" x2="184.52" y2="256.679" style="stroke: #202731; stroke-width: 1" />
<line x1="184.52" y1="256.679" x2="50" y2="254.95" style="stroke: #202731; stroke-width: 1" />
<line x1="414.658" y1="491.818" x2="414.659" y2="491.813" style="stroke: #202731; stroke-width: 1" />
<line x1="414.659" y1="491.813" x2="417.501" y2="397.04" style="stroke: #202731; stroke-width: 1" />
<line x1="434.057" y1="512.394" x2="434.132" y2="391.998" style="stroke: #202731; stroke-width: 1" />
<line x1="434.132" y1="391.998" x2="434.139" y2="381.299" style="stroke: #202731; stroke-width: 1" />
<line x1="234.625" y1="257.323" x2="234.055" y2="306.629" style="stroke: #202731; stroke-width: 1" />
<line x1="234.055" y1="306.629" x2="234.055" y2="306.63" style="stroke: #202731; stroke-width: 1" />
<line x1="234.055" y1="306.63" x2="233.863" y2="323.188" style="stroke: #202731; stroke-width: 1" />
<line x1="233.863" y1="323.188" x2="233.863" y2="323.189" style="stroke: #202731; stroke-width: 1" />
<line x1="233.863" y1="323.189" x2="233.434" y2="360.31" style="stroke: #202731; stroke-width: 1" />
<line x1="301.156" y1="242.273" x2="284.793" y2="257.967" style="stroke: #202731; stroke-width: 1" />
<line x1="284.793" y1="257.967" x2="284.21" y2="258.526" style="stroke: #202731; stroke-width: 1" />
<line x1="284.21" y1="258.526" x2="262.745" y2="279.113" style="stroke: #202731; stroke-width: 1" />
<line x1="262.745" y1="279.113" x2="234.055" y2="306.63" style="stroke: #202731; stroke-width: 1" />
<line x1="234.055" y1="306.63" x2="234.055" y2="306.63" style="stroke: #202731; stroke-width: 1" />
<line x1="184.284" y1="273.32" x2="185.08" y2="274.121" style="stroke: #202731; stroke-width: 1" />
<line x1="185.08" y1="274.121" x2="233.863" y2="323.188" style="stroke: #202731; stroke-width: 1" />
<line x1="233.863" y1="323.188" x2="233.864" y2="323.189" style="stroke: #202731; stroke-width: 1" />
<line x1="233.864" y1="323.189" x2="255.525" y2="344.976" style="stroke: #202731; stroke-width: 1" />
<line x1="255.525" y1="344.976" x2="282.814" y2="372.424" style="stroke: #202731; stroke-width: 1" />
<line x1="184.532" y1="255.797" x2="185.333" y2="256.619" style="stroke: #202731; stroke-width: 1" />
<line x1="185.333" y1="256.619" x2="185.402" y2="256.69" style="stroke: #202731; stroke-width: 1" />
<line x1="185.402" y1="256.69" x2="234.055" y2="306.629" style="stroke: #202731; stroke-width: 1" />
<line x1="234.055" y1="306.629" x2="234.055" y2="306.63" style="stroke: #202731; stroke-width: 1" />
<line x1="280.1" y1="277.897" x2="233.864" y2="323.189" style="stroke: #202731; stroke-width: 1" />
<line x1="233.864" y1="323.189" x2="233.863" y2="323.189" style="stroke: #202731; stroke-width: 1" />
<line x1="233.863" y1="323.189" x2="210.976" y2="345.608" style="stroke: #202731; stroke-width: 1" />
<line x1="210.976" y1="345.608" x2="183.661" y2="372.365" style="stroke: #202731; stroke-width: 1" />
<line x1="183.661" y1="372.365" x2="183.401" y2="372.62" style="stroke: #202731; stroke-width: 1" />
<line x1="183.401" y1="372.62" x2="183.268" y2="372.75" style="stroke: #202731; stroke-width: 1" />
<line x1="183.268" y1="372.75" x2="182.871" y2="373.139" style="stroke: #202731; stroke-width: 1" />
<line x1="182.871" y1="373.139" x2="176.708" y2="379.176" style="stroke: #202731; stroke-width: 1" />
<line x1="176.708" y1="379.176" x2="50" y2="503.294" style="stroke: #202731; stroke-width: 1" />
<line x1="326.369" y1="529.092" x2="432.398" y2="537.128" style="stroke: #202731; stroke-width: 1" />
<line x1="487.736" y1="390.845" x2="459.86" y2="375.447" style="stroke: #202731; stroke-width: 1" />
<line x1="459.86" y1="375.447" x2="458.172" y2="374.515" style="stroke: #202731; stroke-width: 1" />
<line x1="458.172" y1="374.515" x2="441.305" y2="365.198" style="stroke: #202731; stroke-width: 1" />
<line x1="441.305" y1="365.198" x2="346.554" y2="312.86" style="stroke: #202731; stroke-width: 1" />
<line x1="261.089" y1="559.491" x2="431.589" y2="561.621" style="stroke: #202731; stroke-width: 1" />
<line x1="431.589" y1="561.621" x2="438.093" y2="561.702" style="stroke: #202731; stroke-width: 1" />
<line x1="438.093" y1="561.702" x2="509.104" y2="562.589" style="stroke: #202731; stroke-width: 1" />
<line x1="509.104" y1="562.589" x2="510.434" y2="562.605" style="stroke: #202731; stroke-width: 1" />
<line x1="510.434" y1="562.605" x2="512.075" y2="562.626" style="stroke: #202731; stroke-width: 1" />
<line x1="512.075" y1="562.626" x2="650" y2="564.348" style="stroke: #202731; stroke-width: 1" />
<line x1="510.434" y1="562.605" x2="510.445" y2="562.488" style="stroke: #202731; stroke-width: 1" />
<line x1="510.445" y1="562.488" x2="512.341" y2="542.545" style="stroke: #202731; stroke-width: 1" />
<line x1="512.341" y1="542.545" x2="513.512" y2="530.23" style="stroke: #202731; stroke-width: 1" />
<line x1="513.512" y1="530.23" x2="528.161" y2="376.146" style="stroke: #202731; stroke-width: 1" />
<line x1="50" y1="556.543" x2="180.248" y2="558.403" style="stroke: #202731; stroke-width: 1" />
<line x1="180.248" y1="558.403" x2="180.974" y2="558.413" style="stroke: #202731; stroke-width: 1" />
<line x1="180.974" y1="558.413" x2="253.539" y2="559.45" style="stroke: #202731; stroke-width: 1" />
<line x1="253.539" y1="559.45" x2="261.09" y2="559.557" style="stroke: #202731; stroke-width: 1" />
<line x1="261.09" y1="559.557" x2="431.577" y2="561.992" style="stroke: #202731; stroke-width: 1" />
<line x1="484.97" y1="529.876" x2="487.736" y2="390.845" style="stroke: #202731; stroke-width: 1" />
<line x1="487.736" y1="390.845" x2="488.037" y2="375.735" style="stroke: #202731; stroke-width: 1" />
<line x1="488.037" y1="375.735" x2="488.079" y2="373.612" style="stroke: #202731; stroke-width: 1" />
<line x1="488.079" y1="373.612" x2="489.263" y2="314.113" style="stroke: #202731; stroke-width: 1" />
<line x1="489.263" y1="314.113" x2="489.336" y2="310.436" style="stroke: #202731; stroke-width: 1" />
<line x1="489.336" y1="310.436" x2="490.276" y2="263.175" style="stroke: #202731; stroke-width: 1" />
<line x1="490.276" y1="263.175" x2="490.784" y2="237.661" style="stroke: #202731; stroke-width: 1" />
<line x1="428.669" y1="650" x2="431.365" y2="568.396" style="stroke: #202731; stroke-width: 1" />
<line x1="431.365" y1="568.396" x2="431.577" y2="561.992" style="stroke: #202731; stroke-width: 1" />
<line x1="431.577" y1="561.992" x2="431.589" y2="561.621" style="stroke: #202731; stroke-width: 1" />
<line x1="431.589" y1="561.621" x2="431.9" y2="552.213" style="stroke: #202731; stroke-width: 1" />
<line x1="431.9" y1="552.213" x2="432.38" y2="537.683" style="stroke: #202731; stroke-width: 1" />
<line x1="432.38" y1="537.683" x2="432.398" y2="537.128" style="stroke: #202731; stroke-width: 1" />
<line x1="432.398" y1="537.128" x2="432.514" y2="533.633" style="stroke: #202731; stroke-width: 1" />
<line x1="432.514" y1="533.633" x2="432.659" y2="529.228" style="stroke: #202731; stroke-width: 1" />
<line x1="432.659" y1="529.228" x2="432.84" y2="523.763" style="stroke: #202731; stroke-width: 1" />
<line x1="624.633" y1="377.132" x2="516.031" y2="263.969" style="stroke: #202731; stroke-width: 1" />
<line x1="516.031" y1="263.969" x2="506.627" y2="254.17" style="stroke: #202731; stroke-width: 1" />
<line x1="506.627" y1="254.17" x2="490.784" y2="237.661" style="stroke: #202731; stroke-width: 1" />
<line x1="490.784" y1="237.661" x2="486.262" y2="232.949" style="stroke: #202731; stroke-width: 1" />
<line x1="486.262" y1="232.949" x2="333.982" y2="74.2723" style="stroke: #202731; stroke-width: 1" />
<line x1="260.801" y1="520.525" x2="260.849" y2="527.099" style="stroke: #202731; stroke-width: 1" />
<line x1="260.849" y1="527.099" x2="260.86" y2="528.579" style="stroke: #202731; stroke-width: 1" />
<line x1="260.86" y1="528.579" x2="260.976" y2="544.138" style="stroke: #202731; stroke-width: 1" />
<line x1="260.976" y1="544.138" x2="261.089" y2="559.491" style="stroke: #202731; stroke-width: 1" />
<line x1="261.089" y1="559.491" x2="261.09" y2="559.557" style="stroke: #202731; stroke-width: 1" />
<line x1="261.09" y1="559.557" x2="261.76" y2="650" style="stroke: #202731; stroke-width: 1" />
<line x1="260.976" y1="544.138" x2="342.968" y2="548.012" style="stroke: #202731; stroke-width: 1" />
<line x1="342.968" y1="548.012" x2="431.9" y2="552.213" style="stroke: #202731; stroke-width: 1" />
<line x1="431.365" y1="568.396" x2="509.104" y2="562.589" style="stroke: #202731; stroke-width: 1" />
<line x1="509.104" y1="562.589" x2="510.445" y2="562.488" style="stroke: #202731; stroke-width: 1" />
<line x1="510.445" y1="562.488" x2="512.079" y2="562.366" style="stroke: #202731; stroke-width: 1" />
<line x1="512.079" y1="562.366" x2="650" y2="552.064" style="stroke: #202731; stroke-width: 1" />
<line x1="490.276" y1="263.175" x2="300.798" y2="276.448" style="stroke: #202731; stroke-width: 1" />
<line x1="300.798" y1="276.448" x2="289.943" y2="277.208" style="stroke: #202731; stroke-width: 1" />
<line x1="289.943" y1="277.208" x2="283.976" y2="277.626" style="stroke: #202731; stroke-width: 1" />
<line x1="283.976" y1="277.626" x2="280.1" y2="277.897" style="stroke: #202731; stroke-width: 1" />
<line x1="280.1" y1="277.897" x2="262.745" y2="279.113" style="stroke: #202731; stroke-width: 1" />
<line x1="308.497" y1="508.722" x2="324.412" y2="526.862" style="stroke: #202731; stroke-width: 1" />
<line x1="324.412" y1="526.862" x2="325.321" y2="527.898" style="stroke: #202731; stroke-width: 1" />
<line x1="325.321" y1="527.898" x2="326.369" y2="529.092" style="stroke: #202731; stroke-width: 1" />
<line x1="326.369" y1="529.092" x2="329.097" y2="532.201" style="stroke: #202731; stroke-width: 1" />
<line x1="329.097" y1="532.201" x2="342.968" y2="548.012" style="stroke: #202731; stroke-width: 1" />
<line x1="324.412" y1="526.862" x2="329.981" y2="527.211" style="stroke: #202731; stroke-width: 1" />
<line x1="329.981" y1="527.211" x2="344.797" y2="528.139" style="stroke: #202731; stroke-width: 1" />
<line x1="344.797" y1="528.139" x2="432.514" y2="533.633" style="stroke: #202731; stroke-width: 1" />
<line x1="260.86" y1="528.579" x2="329.097" y2="532.201" style="stroke: #202731; stroke-width: 1" />
<line x1="329.097" y1="532.201" x2="432.38" y2="537.683" style="stroke: #202731; stroke-width: 1" />
<line x1="50" y1="650" x2="178.951" y2="650" style="stroke: #202731; stroke-width: 1" />
<line x1="178.951" y1="650" x2="179.651" y2="650" style="stroke: #202731; stroke-width: 1" />
<line x1="179.651" y1="650" x2="261.76" y2="650" style="stroke: #202731; stroke-width: 1" />
<line x1="261.76" y1="650" x2="428.669" y2="650" style="stroke: #202731; stroke-width: 1" />
<line x1="428.669" y1="650" x2="650" y2="650" style="stroke: #202731; stroke-width: 1" />
<line x1="650" y1="650" x2="650" y2="564.348" style="stroke: #202731; stroke-width: 1" />
<line x1="650" y1="564.348" x2="650" y2="552.064" style="stroke: #202731; stroke-width: 1" />
<line x1="650" y1="552.064" x2="650" y2="377.392" style="stroke: #202731; stroke-width: 1" />
<line x1="650" y1="377.392" x2="650" y2="74.2723" style="stroke: #202731; stroke-width: 1" />
<line x1="650" y1="74.2723" x2="506.747" y2="74.2723" style="stroke: #202731; stroke-width: 1" />
<line x1="506.747" y1="74.2723" x2="333.982" y2="74.2723" style="stroke: #202731; stroke-width: 1" />
<line x1="333.982" y1="74.2723" x2="302.919" y2="74.2723" style="stroke: #202731; stroke-width: 1" />
<line x1="302.919" y1="74.2723" x2="187.966" y2="74.2723" style="stroke: #202731; stroke-width: 1" />
<line x1="187.966" y1="74.2723" x2="50" y2="74.2723" style="stroke: #202731; stroke-width: 1" />
<line x1="50" y1="74.2723" x2="50" y2="254.95" style="stroke: #202731; stroke-width: 1" />
<line x1="50" y1="254.95" x2="50" y2="371.256" style="stroke: #202731; stroke-width: 1" />
<line x1="50" y1="371.256" x2="50" y2="372.021" style="stroke: #202731; stroke-width: 1" />
<line x1="50" y1="372.021" x2="50" y2="503.294" style="stroke: #202731; stroke-width: 1" />
<line x1="50" y1="503.294" x2="50" y2="556.543" style="stroke: #202731; stroke-width: 1" />
<line x1="50" y1="556.543" x2="50" y2="650" style="stroke: #202731; stroke-width: 1" />
<circle cx="182.878" cy="372.615" r="2" fill="#239ACFDD" />
<circle cx="183.657" cy="372.623" r="2" fill="#239ACFDD" />
<circle cx="181.441" cy="526.114" r="2" fill="#239ACFDD" />
<circle cx="180.705" cy="526.105" r="2" fill="#239ACFDD" />
<circle cx="255.262" cy="373.355" r="2" fill="#239ACFDD" />
<circle cx="253.839" cy="527.012" r="2" fill="#239ACFDD" />
<circle cx="441.141" cy="375.256" r="2" fill="#239ACFDD" />
<circle cx="438.623" cy="529.302" r="2" fill="#239ACFDD" />
<circle cx="299.776" cy="373.81" r="2" fill="#239ACFDD" />
<circle cx="300.42" cy="312.455" r="2" fill="#239ACFDD" />
<circle cx="506.588" cy="314.265" r="2" fill="#239ACFDD" />
<circle cx="506.641" cy="233.204" r="2" fill="#239ACFDD" />
<circle cx="301.279" cy="230.639" r="2" fill="#239ACFDD" />
<circle cx="185.729" cy="229.196" r="2" fill="#239ACFDD" />
<circle cx="512.504" cy="530.218" r="2" fill="#239ACFDD" />
<circle cx="514.547" cy="376.007" r="2" fill="#239ACFDD" />
<circle cx="415.154" cy="313.463" r="2" fill="#202731" />
<circle cx="182.876" cy="372.748" r="2" fill="#239ACFDD" />
<circle cx="183.655" cy="372.752" r="2" fill="#239ACFDD" />
<circle cx="210.833" cy="372.9" r="2" fill="#202731" />
<circle cx="255.264" cy="373.143" r="2" fill="#239ACFDD" />
<circle cx="438.897" cy="512.535" r="2" fill="#239ACFDD" />
<circle cx="254.023" cy="507.129" r="2" fill="#239ACFDD" />
<circle cx="281.406" cy="507.93" r="2" fill="#239ACFDD" />
<circle cx="287.963" cy="444.376" r="2" fill="#202731" />
<circle cx="417.008" cy="529.034" r="2" fill="#239ACFDD" />
<circle cx="415.924" cy="511.864" r="2" fill="#202731" />
<circle cx="411.032" cy="434.387" r="2" fill="#239ACFDD" />
<circle cx="287.963" cy="444.376" r="2" fill="#202731" />
<circle cx="287.963" cy="444.376" r="2" fill="#239ACFDD" />
<circle cx="277.544" cy="373.583" r="2" fill="#202731" />
<circle cx="411.033" cy="434.387" r="2" fill="#202731" />
<circle cx="411.033" cy="434.39" r="2" fill="#202731" />
<circle cx="421.309" cy="375.053" r="2" fill="#202731" />
<circle cx="418.395" cy="391.881" r="2" fill="#202731" />
<circle cx="280.086" cy="390.851" r="2" fill="#202731" />
<circle cx="255.102" cy="390.665" r="2" fill="#239ACFDD" />
<circle cx="414.658" cy="491.811" r="2" fill="#202731" />
<circle cx="405.747" cy="464.912" r="2" fill="#202731" />
<circle cx="396.037" cy="435.604" r="2" fill="#202731" />
<circle cx="381.46" cy="391.606" r="2" fill="#202731" />
<circle cx="312.881" cy="391.095" r="2" fill="#202731" />
<circle cx="300.263" cy="443.378" r="2" fill="#202731" />
<circle cx="284.66" cy="508.025" r="2" fill="#202731" />
<circle cx="354.592" cy="510.07" r="2" fill="#202731" />
<circle cx="396.037" cy="435.604" r="2" fill="#202731" />
<circle cx="396.037" cy="435.605" r="2" fill="#202731" />
<circle cx="409.574" cy="411.283" r="2" fill="#202731" />
<circle cx="290.271" cy="422.005" r="2" fill="#202731" />
<circle cx="300.263" cy="443.378" r="2" fill="#202731" />
<circle cx="300.263" cy="443.378" r="2" fill="#202731" />
<circle cx="331.12" cy="509.384" r="2" fill="#202731" />
<circle cx="181.337" cy="533.27" r="2" fill="#202731" />
<circle cx="181.122" cy="526.11" r="2" fill="#239ACFDD" />
<circle cx="180.839" cy="516.676" r="2" fill="#202731" />
<circle cx="287.711" cy="373.687" r="2" fill="#239ACFDD" />
<circle cx="289.13" cy="312.356" r="2" fill="#239ACFDD" />
<circle cx="281.406" cy="507.93" r="2" fill="#202731" />
<circle cx="281.405" cy="507.93" r="2" fill="#202731" />
<circle cx="253.86" cy="524.767" r="2" fill="#202731" />
<circle cx="371.131" cy="480.353" r="2" fill="#202731" />
<circle cx="415.925" cy="511.864" r="2" fill="#202731" />
<circle cx="415.924" cy="511.863" r="2" fill="#202731" />
<circle cx="438.647" cy="527.848" r="2" fill="#202731" />
<circle cx="440.751" cy="529.328" r="2" fill="#202731" />
<circle cx="253.019" cy="373.131" r="2" fill="#202731" />
<circle cx="253.331" cy="373.335" r="2" fill="#202731" />
<circle cx="255.251" cy="374.592" r="2" fill="#202731" />
<circle cx="280.086" cy="390.849" r="2" fill="#202731" />
<circle cx="280.087" cy="390.851" r="2" fill="#202731" />
<circle cx="292.638" cy="399.067" r="2" fill="#202731" />
<circle cx="308.458" cy="409.423" r="2" fill="#202731" />
<circle cx="284.554" cy="230.43" r="2" fill="#239ACFDD" />
<circle cx="282.799" cy="373.636" r="2" fill="#239ACFDD" />
<circle cx="282.098" cy="404.525" r="2" fill="#202731" />
<circle cx="279.546" cy="507.876" r="2" fill="#239ACFDD" />
<circle cx="349.408" cy="509.919" r="2" fill="#202731" />
<circle cx="329.156" cy="527.945" r="2" fill="#202731" />
<circle cx="514.59" cy="372.812" r="2" fill="#239ACFDD" />
<circle cx="506.549" cy="373.055" r="2" fill="#239ACFDD" />
<circle cx="443.101" cy="375.276" r="2" fill="#202731" />
<circle cx="441.118" cy="376.608" r="2" fill="#202731" />
<circle cx="418.395" cy="391.88" r="2" fill="#202731" />
<circle cx="418.394" cy="391.881" r="2" fill="#202731" />
<circle cx="408.758" cy="398.357" r="2" fill="#202731" />
<circle cx="388.261" cy="412.132" r="2" fill="#202731" />
<circle cx="300.99" cy="258.175" r="2" fill="#239ACFDD" />
<circle cx="290.386" cy="258.039" r="2" fill="#239ACFDD" />
<circle cx="284.217" cy="257.96" r="2" fill="#239ACFDD" />
<circle cx="185.332" cy="256.689" r="2" fill="#239ACFDD" />
<circle cx="184.52" cy="256.679" r="2" fill="#239ACFDD" />
<circle cx="417.501" cy="397.04" r="2" fill="#202731" />
<circle cx="414.658" cy="491.818" r="2" fill="#202731" />
<circle cx="414.659" cy="491.813" r="2" fill="#202731" />
<circle cx="434.057" cy="512.394" r="2" fill="#239ACFDD" />
<circle cx="434.132" cy="391.998" r="2" fill="#239ACFDD" />
<circle cx="434.139" cy="381.299" r="2" fill="#202731" />
<circle cx="234.625" cy="257.323" r="2" fill="#239ACFDD" />
<circle cx="233.434" cy="360.31" r="2" fill="#202731" />
<circle cx="301.156" cy="242.273" r="2" fill="#202731" />
<circle cx="284.793" cy="257.967" r="2" fill="#202731" />
<circle cx="284.21" cy="258.526" r="2" fill="#202731" />
<circle cx="234.055" cy="306.63" r="2" fill="#202731" />
<circle cx="184.284" cy="273.32" r="2" fill="#202731" />
<circle cx="185.08" cy="274.121" r="2" fill="#202731" />
<circle cx="233.863" cy="323.188" r="2" fill="#202731" />
<circle cx="255.525" cy="344.976" r="2" fill="#202731" />
<circle cx="282.814" cy="372.424" r="2" fill="#202731" />
<circle cx="234.055" cy="306.63" r="2" fill="#239ACFDD" />
<circle cx="234.055" cy="306.629" r="2" fill="#202731" />
<circle cx="185.402" cy="256.69" r="2" fill="#202731" />
<circle cx="185.333" cy="256.619" r="2" fill="#202731" />
<circle cx="184.532" cy="255.797" r="2" fill="#202731" />
<circle cx="176.708" cy="379.176" r="2" fill="#202731" />
<circle cx="182.871" cy="373.139" r="2" fill="#202731" />
<circle cx="183.268" cy="372.75" r="2" fill="#202731" />
<circle cx="183.401" cy="372.62" r="2" fill="#202731" />
<circle cx="183.661" cy="372.365" r="2" fill="#202731" />
<circle cx="210.976" cy="345.608" r="2" fill="#202731" />
<circle cx="233.864" cy="323.189" r="2" fill="#239ACFDD" />
<circle cx="233.863" cy="323.189" r="2" fill="#202731" />
<circle cx="459.86" cy="375.447" r="2" fill="#202731" />
<circle cx="458.172" cy="374.515" r="2" fill="#202731" />
<circle cx="441.305" cy="365.198" r="2" fill="#202731" />
<circle cx="346.554" cy="312.86" r="2" fill="#202731" />
<circle cx="512.075" cy="562.626" r="2" fill="#239ACFDD" />
<circle cx="438.093" cy="561.702" r="2" fill="#239ACFDD" />
<circle cx="510.434" cy="562.605" r="2" fill="#239ACFDD" />
<circle cx="512.341" cy="542.545" r="2" fill="#202731" />
<circle cx="513.512" cy="530.23" r="2" fill="#239ACFDD" />
<circle cx="528.161" cy="376.146" r="2" fill="#239ACFDD" />
<circle cx="253.539" cy="559.45" r="2" fill="#239ACFDD" />
<circle cx="180.974" cy="558.413" r="2" fill="#239ACFDD" />
<circle cx="180.248" cy="558.403" r="2" fill="#239ACFDD" />
<circle cx="484.97" cy="529.876" r="2" fill="#239ACFDD" />
<circle cx="487.736" cy="390.845" r="2" fill="#202731" />
<circle cx="488.037" cy="375.735" r="2" fill="#239ACFDD" />
<circle cx="488.079" cy="373.612" r="2" fill="#239ACFDD" />
<circle cx="489.263" cy="314.113" r="2" fill="#239ACFDD" />
<circle cx="489.336" cy="310.436" r="2" fill="#239ACFDD" />
<circle cx="431.577" cy="561.992" r="2" fill="#239ACFDD" />
<circle cx="431.589" cy="561.621" r="2" fill="#239ACFDD" />
<circle cx="432.398" cy="537.128" r="2" fill="#239ACFDD" />
<circle cx="432.659" cy="529.228" r="2" fill="#239ACFDD" />
<circle cx="432.84" cy="523.763" r="2" fill="#202731" />
<circle cx="624.633" cy="377.132" r="2" fill="#202731" />
<circle cx="516.031" cy="263.969" r="2" fill="#202731" />
<circle cx="506.627" cy="254.17" r="2" fill="#202731" />
<circle cx="490.784" cy="237.661" r="2" fill="#202731" />
<circle cx="486.262" cy="232.949" r="2" fill="#202731" />
<circle cx="261.09" cy="559.557" r="2" fill="#239ACFDD" />
<circle cx="261.089" cy="559.491" r="2" fill="#239ACFDD" />
<circle cx="260.849" cy="527.099" r="2" fill="#239ACFDD" />
<circle cx="260.801" cy="520.525" r="2" fill="#202731" />
<circle cx="431.9" cy="552.213" r="2" fill="#239ACFDD" />
<circle cx="260.976" cy="544.138" r="2" fill="#239ACFDD" />
<circle cx="512.079" cy="562.366" r="2" fill="#202731" />
<circle cx="510.445" cy="562.488" r="2" fill="#202731" />
<circle cx="509.104" cy="562.589" r="2" fill="#202731" />
<circle cx="431.365" cy="568.396" r="2" fill="#202731" />
<circle cx="490.276" cy="263.175" r="2" fill="#202731" />
<circle cx="300.798" cy="276.448" r="2" fill="#239ACFDD" />
<circle cx="289.943" cy="277.208" r="2" fill="#202731" />
<circle cx="283.976" cy="277.626" r="2" fill="#239ACFDD" />
<circle cx="280.1" cy="277.897" r="2" fill="#202731" />
<circle cx="262.745" cy="279.113" r="2" fill="#202731" />
<circle cx="342.968" cy="548.012" r="2" fill="#202731" />
<circle cx="326.369" cy="529.092" r="2" fill="#202731" />
<circle cx="325.321" cy="527.898" r="2" fill="#202731" />
<circle cx="308.497" cy="508.722" r="2" fill="#202731" />
<circle cx="432.514" cy="533.633" r="2" fill="#239ACFDD" />
<circle cx="344.797" cy="528.139" r="2" fill="#202731" />
<circle cx="329.981" cy="527.211" r="2" fill="#202731" />
<circle cx="324.412" cy="526.862" r="2" fill="#202731" />
<circle cx="432.38" cy="537.683" r="2" fill="#239ACFDD" />
<circle cx="329.097" cy="532.201" r="2" fill="#202731" />
<circle cx="260.86" cy="528.579" r="2" fill="#239ACFDD" />
<circle cx="178.951" cy="650" r="2" fill="#239ACFDD" />
<circle cx="179.651" cy="650" r="2" fill="#239ACFDD" />
<circle cx="261.76" cy="650" r="2" fill="#239ACFDD" />
<circle cx="428.669" cy="650" r="2" fill="#239ACFDD" />
<circle cx="650" cy="650" r="2" fill="#23D90B1C" />
<circle cx="650" cy="564.348" r="2" fill="#239ACFDD" />
<circle cx="650" cy="552.064" r="2" fill="#239ACFDD" />
<circle cx="650" cy="377.392" r="2" fill="#239ACFDD" />
<circle cx="650" cy="74.2723" r="2" fill="#23D90B1C" />
<circle cx="506.747" cy="74.2723" r="2" fill="#239ACFDD" />
<circle cx="333.982" cy="74.2723" r="2" fill="#202731" />
<circle cx="302.919" cy="74.2723" r="2" fill="#239ACFDD" />
<circle cx="187.966" cy="74.2723" r="2" fill="#239ACFDD" />
<circle cx="50" cy="74.2723" r="2" fill="#23D90B1C" />
<circle cx="50" cy="254.95" r="2" fill="#239ACFDD" />
<circle cx="50" cy="371.256" r="2" fill="#239ACFDD" />
<circle cx="50" cy="372.021" r="2" fill="#239ACFDD" />
<circle cx="50" cy="503.294" r="2" fill="#202731" />
<circle cx="50" cy="556.543" r="2" fill="#239ACFDD" />
<circle cx="50" cy="650" r="2" fill="#23D90B1C" />
</g>
</svg>